<?xml version="1.0" standalone="no"?>
<!DOCTYPE svg PUBLIC "-//W3C//DTD SVG 20010904//EN"
 "http://www.w3.org/TR/2001/REC-SVG-20010904/DTD/svg10.dtd">
<svg version="1.0" xmlns="http://www.w3.org/2000/svg"
 width="100.000000pt" height="100.000000pt" viewBox="0 0 100.000000 100.000000"
 preserveAspectRatio="xMidYMid meet">
<metadata>
Created by potrace 1.13, written by Peter Selinger 2001-2015
</metadata>
<g transform="translate(0.000000,100.000000) scale(0.100000,-0.100000)"
fill="#000000" stroke="none">
<path d="M142 988 c-7 -7 -12 -26 -12 -44 0 -23 5 -33 20 -37 29 -8 26 -37 -5
-37 -18 0 -23 -4 -19 -15 4 -8 15 -15 25 -15 25 0 24 -30 -1 -37 -26 -7 -26
-19 1 -26 26 -7 20 -30 -9 -37 -23 -5 -18 -22 11 -33 23 -8 22 -27 -1 -27 -10
0 -21 -3 -25 -6 -11 -11 5 -34 24 -34 10 0 19 -7 19 -15 0 -8 -9 -15 -20 -15
-11 0 -20 -7 -20 -15 0 -8 9 -15 20 -15 11 0 20 -7 20 -15 0 -9 -9 -15 -25
-15 -32 0 -32 -18 0 -30 30 -11 33 -40 5 -40 -11 0 -20 -7 -20 -15 0 -8 9 -15
20 -15 11 0 20 -7 20 -15 0 -9 -9 -15 -25 -15 -29 0 -25 -25 6 -33 28 -8 24
-37 -6 -37 -18 0 -23 -4 -19 -15 4 -8 15 -15 25 -15 10 0 19 -7 19 -15 0 -14
-18 -19 -65 -16 -18 1 -18 0 3 -9 12 -5 22 -14 22 -20 0 -5 9 -10 20 -10 11 0
20 -7 20 -15 0 -9 -9 -15 -25 -15 -18 0 -23 -4 -19 -15 4 -8 15 -15 25 -15 10
0 19 -7 19 -15 0 -9 -9 -15 -23 -15 -20 0 -22 -4 -19 -45 3 -31 10 -48 22 -55
27 -14 380 -24 543 -15 153 8 167 14 167 70 0 24 6 38 20 45 29 16 29 99 0
107 -17 5 -20 14 -20 69 0 53 3 65 20 74 16 8 20 21 20 56 0 37 -4 47 -20 51
-19 5 -20 14 -20 232 0 163 -3 230 -12 239 -17 17 -689 17 -706 0z"/>
</g>
</svg>
